# xmcd
#
# Track frame offsets: 
#        150
#        14333
#        31723
#        50786
#        63818
#        76819
#        88569
#        105185
#        119296
#
# Disc length: 1821 seconds
#
# Revision: 2
# Processed by: cddbd v1.5.2PL0 Copyright (c) Steve Scherf et al.
# Submitted via: ExactAudioCopyFreeDBPlugin 1.0
#
DISCID=5d071b09
DTITLE=Various Artist - Blues At Newport  [Disc 2]
DYEAR=1989
DGENRE=blues
TTITLE0=Sleepy John Estes - Clean Up At Home
TTITLE1=Robert Pete Williams - On My Way From Texas
TTITLE2=Robert Pete Williams - Bulldog Blues
TTITLE3=Jesse Fuller - I Double Double Do Love You
TTITLE4=Jesse Fuller - San Fancisco Bay Blues
TTITLE5=John Hammond - Me And The Devil
TTITLE6=John Lee Hooker - Sometimes You Make Me Feel So Bad
TTITLE7=John Lee Hooker - Hobo Blues
TTITLE8=Dave Van Ronk - That Will Never Happen No More
EXTD=
EXTT0=
EXTT1=
EXTT2=
EXTT3=
EXTT4=
EXTT5=
EXTT6=
EXTT7=
EXTT8=
PLAYORDER=
